<svg width="18" height="19" viewBox="0 0 18 19" fill="none" xmlns="http://www.w3.org/2000/svg">
<g id="Sparkle" clip-path="url(#clip0_198_196)">
<path id="Vector" d="M5.83605 12.1714L2.24855 10.8519C2.14307 10.813 2.05205 10.7426 1.98776 10.6504C1.92347 10.5581 1.88901 10.4484 1.88901 10.3359C1.88901 10.2235 1.92347 10.1138 1.98776 10.0215C2.05205 9.92924 2.14307 9.85891 2.24855 9.81997L5.83605 8.50052C5.91075 8.47317 5.97859 8.42986 6.03484 8.37361C6.09109 8.31736 6.1344 8.24953 6.16175 8.17483L7.48119 4.58733C7.52013 4.48184 7.59047 4.39082 7.68272 4.32654C7.77498 4.26225 7.88472 4.22778 7.99717 4.22778C8.10961 4.22778 8.21935 4.26225 8.31161 4.32654C8.40387 4.39082 8.4742 4.48184 8.51314 4.58733L9.83258 8.17483C9.85993 8.24953 9.90324 8.31736 9.95949 8.37361C10.0157 8.42986 10.0836 8.47317 10.1583 8.50052L13.7458 9.81997C13.8513 9.85891 13.9423 9.92924 14.0066 10.0215C14.0709 10.1138 14.1053 10.2235 14.1053 10.3359C14.1053 10.4484 14.0709 10.5581 14.0066 10.6504C13.9423 10.7426 13.8513 10.813 13.7458 10.8519L10.1583 12.1714C10.0836 12.1987 10.0157 12.242 9.95949 12.2983C9.90324 12.3545 9.85993 12.4224 9.83258 12.4971L8.51314 16.0846C8.4742 16.19 8.40387 16.2811 8.31161 16.3453C8.21935 16.4096 8.10961 16.4441 7.99717 16.4441C7.88472 16.4441 7.77498 16.4096 7.68272 16.3453C7.59047 16.2811 7.52013 16.19 7.48119 16.0846L6.16175 12.4971C6.1344 12.4224 6.09109 12.3545 6.03484 12.2983C5.97859 12.242 5.91075 12.1987 5.83605 12.1714Z" stroke="#FAFAFA" stroke-width="1.11111" stroke-linecap="round" stroke-linejoin="round"/>
<path id="Vector_2" d="M12.4445 1.44434V4.77767" stroke="#FAFAFA" stroke-width="1.11111" stroke-linecap="round" stroke-linejoin="round"/>
<path id="Vector_3" d="M15.7777 5.33325V7.55547" stroke="#FAFAFA" stroke-width="1.11111" stroke-linecap="round" stroke-linejoin="round"/>
<path id="Vector_4" d="M10.7777 3.11108H14.1111" stroke="#FAFAFA" stroke-width="1.11111" stroke-linecap="round" stroke-linejoin="round"/>
<path id="Vector_5" d="M14.667 6.44434H16.8892" stroke="#FAFAFA" stroke-width="1.11111" stroke-linecap="round" stroke-linejoin="round"/>
</g>
<defs>
<clipPath id="clip0_198_196">
<rect width="17.7778" height="17.7778" fill="white" transform="translate(0.222229 0.333252)"/>
</clipPath>
</defs>
</svg>
