<svg width="36" height="36" viewBox="0 0 36 36" fill="none" xmlns="http://www.w3.org/2000/svg">
<rect x="0.599365" y="0.529297" width="35" height="35" rx="9" fill="#08D0DD"/>
<path fill-rule="evenodd" clip-rule="evenodd" d="M22.2123 28.9967C22.6666 28.9967 23.0348 28.6184 23.0348 28.1518C23.0348 27.6852 22.6666 27.3069 22.2123 27.3069H18.9046V22.1989C23.2213 21.7823 26.5994 18.0498 26.5994 13.5069V10.0087C26.5994 8.36322 25.3007 7.0293 23.6987 7.0293H12.5C10.898 7.0293 9.59937 8.36322 9.59937 10.0087V13.5069C9.59937 18.0496 12.9771 21.782 17.2937 22.1989V27.3069H13.9865C13.5322 27.3069 13.1639 27.6852 13.1639 28.1518C13.1639 28.6184 13.5322 28.9967 13.9865 28.9967H17.8768C17.9474 29.018 18.022 29.0294 18.0991 29.0294C18.1762 29.0294 18.2508 29.018 18.3215 28.9967H22.2123ZM12.5 8.7191H23.6987C24.3921 8.7191 24.9542 9.29648 24.9542 10.0087V13.5069C24.9542 13.6316 24.951 13.7556 24.9448 13.8787C23.7486 14.3337 20.9954 14.6679 17.2835 13.1127C14.1875 11.8155 12.2409 12.5943 11.2447 13.5607C11.2446 13.5428 11.2445 13.5248 11.2445 13.5069V10.0087C11.2445 9.29648 11.8066 8.7191 12.5 8.7191ZM11.606 15.769C12.5233 18.5479 15.0839 20.5478 18.0994 20.5478C20.751 20.5478 23.051 19.0013 24.1911 16.7386C22.5374 17.2624 19.9104 16.3968 17.2835 15.261C14.9271 14.2421 12.707 15.0605 11.606 15.769Z" fill="white"/>
</svg>
